<svg xmlns="http://www.w3.org/2000/svg" width="500" height="500" fill="none" viewBox="0 0 500 500"><g clip-path="url(#a)"><path fill="#e5a46c" d="M499.996 249.996C499.996 388.074 388.07 500 250 500 111.926 500 0 388.074 0 249.996 0 111.927 111.926 0 250 0c138.07 0 249.996 111.927 249.996 249.996"/><path fill="#f4cb91" d="M250 452.84c-111.847 0-202.843-90.986-202.843-202.844C47.157 138.153 138.153 47.16 250 47.16c111.857 0 202.843 90.993 202.843 202.836 0 111.858-90.986 202.844-202.843 202.844"/><path fill="#e7ad61" d="M52.839 258.521c0-111.85 90.997-202.843 202.839-202.843 68.567 0 129.253 34.234 165.985 86.466C385.727 85.142 322.236 47.161 250 47.161c-111.847 0-202.843 90.993-202.843 202.836 0 43.282 13.668 83.412 36.854 116.377-19.712-31.264-31.172-68.233-31.172-107.853"/><path fill="#ee7d5a" d="M192.23 146.775c0 18.827-15.261 34.095-34.082 34.095-18.83 0-34.098-15.268-34.098-34.095s15.268-34.088 34.098-34.088c18.82 0 34.082 15.262 34.082 34.088M375.946 375.957c0 19.614-15.889 35.512-35.505 35.512-19.614 0-35.517-15.898-35.517-35.512s15.903-35.512 35.517-35.512c19.616.001 35.505 15.898 35.505 35.512M159.097 310.599c0 18.833-15.276 34.095-34.099 34.095-18.826 0-34.088-15.262-34.088-34.095 0-18.82 15.262-34.088 34.088-34.088 18.823 0 34.099 15.268 34.099 34.088M411.939 198.86c0 15.681-12.723 28.404-28.417 28.404-15.68 0-28.404-12.723-28.404-28.404 0-15.687 12.723-28.411 28.404-28.411 15.695 0 28.417 12.724 28.417 28.411M287.416 281.239c0 12.814-10.379 23.2-23.2 23.2-12.807 0-23.2-10.386-23.2-23.2s10.393-23.2 23.2-23.2c12.821 0 23.2 10.387 23.2 23.2"/><path fill="#d9a988" d="M193.193 324.814c0 3.92-3.18 7.101-7.101 7.101-3.934 0-7.115-3.181-7.115-7.101 0-3.927 3.181-7.101 7.115-7.101a7.1 7.1 0 0 1 7.101 7.101M118.848 242.897a7.103 7.103 0 1 0-.001-14.205 7.103 7.103 0 0 0 .001 14.205M268.931 199.816a7.094 7.094 0 0 1-7.101 7.101 7.103 7.103 0 0 1-7.101-7.101 7.104 7.104 0 0 1 7.101-7.108 7.096 7.096 0 0 1 7.101 7.108M340.903 310.605a7.104 7.104 0 0 1-7.101 7.108 7.105 7.105 0 0 1 0-14.208 7.1 7.1 0 0 1 7.101 7.1M283.621 415.724c0 3.92-3.181 7.1-7.1 7.1a7.105 7.105 0 0 1 0-14.208c3.919 0 7.1 3.181 7.1 7.108M369.795 128.793a7.103 7.103 0 0 1-7.102 7.101c-3.92 0-7.1-3.181-7.1-7.101a7.103 7.103 0 0 1 7.1-7.107 7.104 7.104 0 0 1 7.102 7.107M207.869 90.91c0 3.92-3.181 7.1-7.101 7.1-3.935 0-7.116-3.18-7.116-7.1 0-3.927 3.181-7.101 7.116-7.101a7.1 7.1 0 0 1 7.101 7.101M401.993 332.39c0 3.92-3.18 7.1-7.1 7.1a7.094 7.094 0 0 1-7.102-7.1 7.096 7.096 0 0 1 7.102-7.108c3.92 0 7.1 3.18 7.1 7.108"/><path fill="#f6dabf" d="M296.986 125.849c2.958-10.923-7.785-25.375-24.651-29.96-16.867-4.568-33.454 2.463-36.412 13.387-1.66 6.111 1.814 10.261 8.148 13.532l-3.489 12.829c-1.116 4.15 1.325 8.425 5.469 9.548l24.022 6.523a7.79 7.79 0 0 0 9.557-5.469l3.488-12.842c7.116.383 12.208-1.437 13.868-7.548M228.906 344.066c-12.444-4.841-30.747 5.964-38.211 25.174-7.477 19.217-1.298 39.543 11.147 44.391 6.961 2.706 12.262-.844 16.893-7.868l14.608 5.677c4.743 1.842 10.058-.496 11.885-5.224l10.659-27.371c1.828-4.722-.516-10.044-5.232-11.879l-14.62-5.693c1.326-8.293-.167-14.508-7.129-17.207M381.513 306.469c8.063.084 16.099-9.94 16.211-22.384.126-12.458-7.714-22.621-15.777-22.697-4.507-.05-6.753 3.096-7.869 8.049l-9.472-.091a5.544 5.544 0 0 0-5.594 5.49l-.167 17.745c-.028 3.055 2.427 5.567 5.482 5.595l9.487.091c1.017 4.979 3.179 8.16 7.699 8.202"/><path fill="#a3cba0" d="m197.671 243.607-33.482-15.604 8.413-18.017 33.467 15.597zM344.627 167.443l-29.714 21.931-11.803-16.009 29.715-21.923zM141.223 379.041l21.055 16.287-8.775 11.335-21.045-16.294z"/></g><defs><clipPath id="a"><path fill="#fff" d="M0 0h500v500H0z"/></clipPath></defs></svg>